<?xml version="1.0" encoding="UTF-8"?>
<!-- Created with Inkscape (http://www.inkscape.org/) -->
<svg width="300" height="200" version="1.1" viewBox="0 0 79.375 52.917" xmlns="http://www.w3.org/2000/svg">
 <path d="m68.582 20.631c-0.13195 0.55182-0.24879 0.8188-0.41349 0.9447-0.15491 0.11842-0.20203 0.21732-0.14492 0.30403 0.04662 0.07066 0.09708 0.16824 0.11224 0.21678 0.015 0.04857 0.15992 0.08068 0.32168 0.07139 0.23276-0.01337 0.33808 0.04662 0.50497 0.28753 0.30494 0.44017 0.35613 0.6806 0.19949 0.93686-0.1084 0.17732-0.11028 0.25045-0.0086 0.33817 0.09321 0.08044 0.11821 0.15607 0.08902 0.26908-0.02232 0.08646 0.01369 0.25757 0.0802 0.3803 0.11572 0.21381 0.10708 0.22439-0.20712 0.25348l-0.32788 0.0304 0.24713 0.98079c0.1359 0.53945 0.79172 2.6561 1.4573 4.7037 1.1155 3.4316 1.2022 3.7326 1.1083 3.8466-0.05608 0.06805-0.71538 0.25275-1.4652 0.41043-0.97319 0.20465-1.427 0.34007-1.586 0.47322-0.12248 0.1026-0.41209 0.21458-0.6436 0.24888-0.34558 0.05118-0.52784 0.15688-1.0186 0.5907-0.70148 0.62008-0.91294 0.65878-1.1351 0.20774-0.08466-0.17194-0.23506-0.40048-0.33419-0.50786-0.15556-0.1685-0.19806-0.17173-0.31054-0.02356-0.18688 0.2462-0.227 0.50842-0.12782 0.8355 0.14751 0.48649 0.08399 0.74826-0.18431 0.75944-0.12902 0.0056-0.37379 0.12358-0.54393 0.26267-0.21374 0.17473-0.50587 0.29455-0.9451 0.38762l-0.63574 0.13472-0.17032 0.59521c-0.23231 0.81177-0.29325 0.87918-0.51508 0.56968-0.10003-0.13957-0.25539-0.29196-0.34523-0.33862-0.15265-0.0793-0.29739-0.32633-0.58175-0.99292-0.06463-0.15137-0.21431-0.35425-0.33274-0.45085-0.11843-0.0966-0.31255-0.28258-0.43137-0.41329-0.26838-0.29522-0.45922-0.2446-0.58739 0.15582-0.11981 0.37427-0.38084 0.47655-0.61608 0.24139-0.14282-0.14277-0.23862-0.14778-0.53231-0.02787-0.19698 0.08043-0.33677 0.16454-0.31066 0.1869 0.02616 0.02232 0.03814 0.16124 0.02649 0.3087-0.01965 0.25123-0.05151 0.273-0.50764 0.34694-0.35813 0.05802-0.54799 0.14357-0.71874 0.32372-0.12764 0.13466-0.38856 0.29374-0.57985 0.35351-0.19128 0.05973-0.39371 0.16948-0.44985 0.24379-0.19317 0.25571-0.64698-0.17599-0.84239-0.80134-0.07326-0.23455-0.17797-0.44471-0.23259-0.467-0.14572-0.05949-0.25368 0.23918-0.17634 0.48781 0.03683 0.11834 0.0458 0.38323 0.01988 0.58862-0.02584 0.2054-0.0056 0.43568 0.04417 0.51176 0.12425 0.18864-0.14645 0.43755-0.64545 0.59348-0.53262 0.16644-1.209 0.5833-1.2994 0.80086-0.04034 0.09699-0.23083 0.28465-0.42343 0.41701l-0.35016 0.24066 0.1308 0.59539c0.07196 0.32746 0.12092 0.74144 0.10886 0.91994-0.03316 0.49145 0.29393 2.6472 0.41499 2.7347 0.17708 0.12791 0.15845 0.21281-0.19825 0.90359l-0.34856 0.67501-0.47726-0.36475c-0.26249-0.20062-0.51281-0.32981-0.55626-0.2871-0.04344 0.0427-0.04385 0.26682-8.16e-4 0.49802 0.10547 0.56739-0.05321 1.1444-0.33934 1.2338-0.25214 0.07881-0.25399 0.15988-0.0065 0.28751 0.13877 0.07156 0.16237 0.12069 0.11869 0.24701-0.07458 0.21578 0.0033 0.42814 0.14108 0.38505 0.16658-0.05208 0.23639 0.27023 0.08319 0.38408-0.08003 0.05949-0.10742 0.20423-0.07049 0.37227 0.0467 0.21223 0.01883 0.28852-0.12218 0.33444-0.10046 0.03276-0.17912 0.11972-0.17482 0.19334 0.01087 0.1862-0.19647 0.23285-0.25154 0.05656-0.08627-0.27608-0.33174-0.1465-0.33508 0.17687-4e-3 0.35919-0.21485 0.46848-0.70628 0.36556-0.30687-0.06422-0.31562-0.07579-0.46564-0.61236-0.20858-0.74612-0.29601-0.82453-0.5259-0.47172-0.23906 0.36687-0.30874 0.38125-0.63103 0.13028l-0.26801-0.20872-0.18959 0.32396c-0.11146 0.19046-0.16341 0.40849-0.12606 0.52908 0.16311 0.5264-0.17273 0.99925-0.4596 0.64721-0.34973-0.4292-0.43267-1.2336-0.15341-1.488 0.17392-0.15846 0.17777-0.22498 0.0471-0.81366-0.09722-0.43809-0.18481-0.67782-0.27656-0.75704-0.15414-0.13311-0.47766-0.06235-0.50016 0.10937-0.0082 0.06365-0.08125 0.13635-0.16196 0.16158-0.209 0.06528-0.30212-0.30275-0.19745-0.7804 0.04702-0.21474 0.07294-0.42728 0.05746-0.47229-0.01548-0.04499-0.03789 0.0086-0.04996 0.11916-0.04939 0.45474-0.68198 0.23617-1.022-0.3531-0.27754-0.48095-0.41957-0.59473-0.82381-0.65996-0.29081-0.04687-0.3698-0.10717-0.46885-0.35762-0.09554-0.24155-0.08142-0.42773 0.07106-0.94022l0.1902-0.63903-0.26431-0.25257c-0.14538-0.1389-0.25184-0.2879-0.2366-0.33108 0.01524-0.04319 0.27395 0.0056 0.5749 0.10942 0.6224 0.21376 0.73856 0.09024 0.23462-0.24947-0.18691-0.126-0.56175-0.37964-0.83297-0.56364-0.27122-0.18399-0.55986-0.46105-0.64142-0.61567-0.08157-0.15462-0.27836-0.40293-0.43731-0.55179-0.25237-0.23634-0.2949-0.3216-0.3355-0.67252-0.06145-0.53142-0.14431-0.64753-0.40405-0.56638-0.26904 0.08407-0.38197-0.02983-0.28944-0.29183 0.10501-0.29736-0.06659-0.48465-0.35995-0.39297-0.35799 0.11186-0.50371-0.01825-0.47666-0.42564 0.02111-0.31768-0.06153-0.51583-0.19744-0.47337-0.03684 0.01147-0.07375 0.16035-0.08188 0.33074-0.0091 0.18979-0.06855 0.31394-0.15344 0.3205-0.09737 0.0073-0.1171 0.07962-0.06626 0.24227 0.03977 0.12736 0.09419 0.60322 0.12087 1.0575 0.04262 0.72509 0.02257 0.85673-0.16408 1.0781-0.11692 0.13868-0.2783 0.27268-0.35863 0.29778-0.08035 0.02511-0.15368 0.16037-0.16299 0.3006-0.04067 0.61122-0.07792 0.6472-0.64285 0.62014-0.33214-0.01588-0.5946-0.09634-0.73553-0.22543-0.12052-0.11037-0.38642-0.32934-0.59088-0.48658l-0.37176-0.28589-0.11744 0.35553c-0.07482 0.22657-0.19462 0.37966-0.33021 0.42203-0.13143 0.04107-0.19594 0.12032-0.16876 0.20731 0.04809 0.15394-0.07645 0.31317-0.29938 0.38284-0.07832 0.02446-0.3014-0.05566-0.49568-0.178-0.55446-0.34932-0.65254-0.20447-0.29936 0.44208 0.1644 0.30093 0.18334 0.39701 0.11992 0.60779-0.0414 0.1377-0.10576 0.25987-0.14296 0.27149-0.12829 0.0401-0.62839-0.74833-0.78124-1.2317-0.08435-0.26657-0.25058-0.607-0.3695-0.75648-0.1241-0.15599-0.22915-0.38158-0.24657-0.52952-0.02412-0.20453-0.07351-0.26505-0.23952-0.29307-0.2279-0.03855-0.38702-0.27539-0.56608-0.84282-0.15633-0.49581-0.43828-0.55775-1.0765-0.23671-0.45662 0.2297-0.46227 0.23817-0.49119 0.73715-0.04303 0.74276-0.08743 0.82346-0.44295 0.80543-0.16616-0.0084-0.38855-0.08418-0.49418-0.16836-0.24207-0.19286-0.30172-0.52359-0.10555-0.5852 0.1189-0.03741 0.12967-0.1505 0.05436-0.57182-0.09191-0.51437-0.10141-0.52997-0.45781-0.75203-0.34099-0.21246-1.1769-1.2119-1.2746-1.5239-0.02419-0.07733-0.17984-0.31544-0.3459-0.52918-0.32569-0.41925-0.35014-0.56827-0.07854-0.47886 0.13904 0.0458 0.17347 4e-3 0.18168-0.22057 0.0082-0.22631-0.01381-0.28118-0.12066-0.29964-0.07193-0.01247-0.13246-0.09397-0.13449-0.1812-0.0022-0.09339-0.13425-0.23707-0.32118-0.3494-0.30182-0.18139-0.31267-0.19977-0.21976-0.37252 0.05375-0.09994 0.18314-0.17998 0.28755-0.17786 0.22747 0.0048 0.25285-0.27364 0.04158-0.45605-0.1905-0.16449-0.35151-0.09789-0.70167 0.29026-0.23282 0.25807-0.3335 0.31338-0.46865 0.2574-0.23737-0.09831-0.25961-0.0784-0.18367 0.16465 0.03958 0.12663 0.01201 0.25188-0.06861 0.31179-0.07411 0.05509-0.11683 0.1575-0.09491 0.22762 0.0219 0.0701 6e-3 0.20097-0.03522 0.2908-0.06124 0.13324-0.1104 0.14031-0.26696 0.0384-0.10554-0.06871-0.3519-0.11211-0.54747-0.09642-0.35557 0.02844-0.35557 0.02844-0.55035-0.46199-0.22725-0.57224-0.43081-0.64489-0.50256-0.17934-0.06292 0.40819-0.17325 0.40781-0.30101-8.15e-4 -0.09101-0.29127-0.07778-0.37099 0.0864-0.52058 0.203-0.18494 0.23093-0.31072 0.05693-0.25634-0.05614 0.01751-0.20888 0.21152-0.33941 0.43107-0.13053 0.21954-0.27114 0.38536-0.31246 0.3685-0.04132-0.01687-0.13798-0.23183-0.21482-0.4777-0.1212-0.38786-0.1663-0.44759-0.34074-0.45122-0.12246-0.0025-0.25531 0.08461-0.33988 0.22294-0.10786 0.17644-0.18105 0.21323-0.32801 0.16485-0.2222-0.07319-0.43962-0.3202-0.5265-0.59823-0.04281-0.13701-0.17222-0.21889-0.42076-0.26623-0.40532-0.07717-0.52908 0.0132-0.33843 0.24715 0.07091 0.08702 0.11651 0.22382 0.10469 0.31406-0.02668 0.20365-0.25971 0.08222-0.55505-0.28892-0.23647-0.29724-0.53241-0.26686-0.43507 0.04466 0.081 0.25927-0.11566 0.3239-0.2994 0.0984-0.12301-0.15096-0.7361-0.27846-0.77735-0.16166-0.0082 0.02356 0.06313 0.14991 0.15881 0.28074 0.09567 0.13083 0.15986 0.27774 0.14266 0.32647-0.05041 0.14276-0.34804-0.02812-0.4488-0.25766-0.05095-0.11608-0.11372-0.1787-0.13947-0.13917-0.02576 0.03952-6.39e-4 0.15726 0.05585 0.26161 0.07751 0.14318 0.0654 0.20138-0.04921 0.2372-0.10085 0.03153-0.19648-0.03642-0.28454-0.20213-0.11982-0.22545-0.15688-0.23583-0.3833-0.10726-0.22314 0.12671-0.25319 0.11933-0.27373-0.06731-0.02691-0.24433-0.08421-0.24233-0.21289 0.0073-0.07917 0.1537-0.14443 0.1652-0.45245 0.07978-0.38551-0.10691-0.53514-0.34838-0.39919-0.64421 0.07777-0.16924 0.18045-0.1224 0.35994 0.16418 0.02972 0.04751 0.10438 0.03684 0.1659-0.02364 0.10477-0.10297 0.09631-0.12527-0.13357-0.35196-0.16743-0.16513-0.34254-0.23403-0.55103-0.21683-0.40163 0.03308-1.2943-0.23879-1.3779-0.41971-0.03615-0.07832-0.05412-0.22088-0.0399-0.31686 0.02188-0.14775 0.05713-0.16172 0.22957-0.09099 0.16923 0.06936 0.19105 0.06259 0.12893-0.04026-0.04112-0.06813-0.21301-0.1269-0.38195-0.13064-0.30716-0.0065-0.30716-0.0065-0.49113-0.59556l-0.18397-0.58873 0.28908-0.09034c0.31645-0.09889 0.91097-0.58604 0.87107-0.71374-0.0332-0.10624-1.0646-1.0012-1.1302-0.98075-0.02811 0.0089 0.01028 0.16564 0.08551 0.34856 0.17442 0.42434 0.06907 0.61404-0.20613 0.3711-0.11093-0.09793-0.23452-0.22954-0.27466-0.29247-0.0576-0.09033-0.09881-0.0766-0.19568 0.0652-0.10872 0.15912-0.1388 0.15587-0.26359-0.0286-0.07747-0.11452-0.12526-0.15069-0.10618-0.08035 0.08233 0.30336-0.21131 0.15416-0.68553-0.34835-0.28114-0.29783-0.5257-0.58817-0.54351-0.64518-0.01784-0.05697-0.12313-0.16273-0.23403-0.23492-0.19532-0.12717-0.20269-0.11355-0.23534 0.43435-0.0385 0.64596-0.13443 0.79379-0.34896 0.53774-0.1404-0.16758-0.14678-0.15757-0.10203 0.16004 0.0632 0.4485-0.08639 0.62528-0.58293 0.68888-0.33787 0.04328-0.4313 0.01247-0.56064-0.18496-0.3462-0.5284-0.17577-0.99226 0.333-0.90635 0.29234 0.04939 0.2669-0.11462-0.03773-0.24327-0.58515-0.24708-1.2384 0.17478-1.3413 0.86617-0.058332 0.39212-0.25421 0.88662-0.36711 0.92682-0.13414 0.047836-0.5113-0.29814-0.97357-0.89295-0.35396-0.45543-0.46553-0.66598-0.57844-1.0916-0.12452-0.46934-0.11972-0.56126 0.043485-0.83599 0.10086-0.16977 0.34026-0.39002 0.532-0.48944 0.34152-0.17708 0.34639-0.18793 0.23875-0.53238-0.09314-0.29814-0.12619-0.33309-0.2171-0.22982-0.14875 0.16896-0.55455 0.26217-0.79575 0.18274-0.14653-0.048248-0.21283-0.13644-0.24317-0.32352-0.022954-0.14146-0.078815-0.27235-0.12412-0.29084-0.045329-0.018499-0.10289-0.099228-0.12793-0.17935-0.031464-0.10072 0.041251-0.17279 0.23559-0.23352 0.15461-0.048329 0.40386-0.20803 0.55389-0.35493 0.23105-0.2262 0.25112-0.28577 0.1312-0.38931-0.077869-0.067231-0.16408-0.23038-0.19158-0.36255-0.074312-0.35716-0.32042-0.61078-0.66214-0.68235-0.36271-0.075956-0.39047-0.13656-0.2402-0.52438 0.12365-0.31909 0.11546-0.49929-0.017659-0.38863-0.045317 0.037561-0.16742 0.12513-0.27136 0.19438-0.27282 0.18179-0.33527-0.11065-0.089618-0.41972 0.3486-0.43861 0.35244-0.49107 0.05248-0.71721-0.14911-0.11242-0.26179-0.25914-0.25041-0.32605 0.03579-0.21037 0.33711-0.67386 0.52375-0.80568 0.15998-0.113 0.16528-0.19047 0.04969-0.72525-0.07586-0.35098-0.10703-0.83994-0.075293-1.1816 0.05313-0.57197-0.080481-1.3776-0.37842-2.2817-0.067976-0.20629-0.1236-0.5587-0.12355-0.78313 3.31e-5 -0.27164-0.06326-0.5587-0.18934-0.85872-0.24925-0.59312-0.27574-1.3011-0.071179-1.9024 0.1894-0.5568 0.44012-0.67799 0.81175-0.39237 0.28291 0.21743 0.48184 0.21353 0.41259-0.0082-0.024526-0.07848 0.02741-0.30086 0.1154-0.49423 0.087987-0.19335 0.14897-0.45404 0.13553-0.5793-0.021052-0.19598 0.023746-0.23784 0.32128-0.3003 0.3043-0.06387 0.41706-0.01934 0.94118 0.37169 0.58299 0.43497 0.60078 0.45854 0.84997 1.1259l0.25452 0.68167 0.54731 0.08937c0.46691 0.07629 0.79433 0.03113 2.2288-0.30686 1.5561-0.36672 1.7127-0.38543 2.1004-0.25105 0.38054 0.13186 0.44535 0.12516 0.70651-0.07303 0.23832-0.18085 0.27932-0.27099 0.23956-0.52658-0.02638-0.1696 0.0079-0.39976 0.07618-0.51147 0.06828-0.11171 0.1078-0.33817 0.08781-0.50327-0.04562-0.37674 0.18527-1.0907 0.37155-1.1489 0.0771-0.0241 0.27018-0.0033 0.42905 0.04615 0.37395 0.11646 1.4336-0.23142 1.7627-0.57869 0.22232-0.23456 0.57864-0.34146 0.9888-0.29666 0.13457 0.01468 0.20634-0.04991 0.25565-0.23039 0.04765-0.17427 0.12766-0.24958 0.26217-0.24679 0.10647 0.0022 0.22807-0.07125 0.27032-0.16293 0.06327-0.13767 0.12391-0.14891 0.34567-0.06404 0.14791 0.05659 0.4354 0.08255 0.63886 0.05767 0.31381-0.03838 0.38255-0.08525 0.4532-0.30893 0.04579-0.14504 0.15002-0.28456 0.2316-0.31005 0.17522-0.05476 0.5571 0.19905 0.62462 0.41513 0.03165 0.10132 0.12319 0.12796 0.2758 0.08026 0.12563-0.03925 0.47472-0.02282 0.77576 0.03653 0.30103 0.05934 0.78111 0.08622 1.0668 0.05972 0.28572-0.02651 0.60174-0.02112 0.70227 0.01198 0.14489 0.0477 0.21572-0.0018 0.34162-0.2387 0.09575-0.18017 0.29265-0.3552 0.49576-0.4407 0.49235-0.20726 0.89151-0.62541 0.81888-0.85784-0.03271-0.10465-0.0045-0.263 0.06264-0.35189 0.06716-0.088897 0.11516-0.30699 0.10667-0.48466-0.01147-0.23932 0.01728-0.30368 0.11079-0.24834 0.13604 0.080496 0.25007-0.18198 0.23445-0.53969-0.0067-0.1558 0.03315-0.18335 0.22002-0.15179 0.12558 0.021215 0.30305-0.015525 0.39437-0.08162 0.29493-0.21347 1.1597 0.00709 1.8013 0.45938 0.31866 0.22465 0.59423 0.45593 0.61236 0.51396 0.01817 0.058034 0.05876 0.098228 0.09019 0.08933 0.03153-0.00877 0.11899 0.00988 0.1945 0.041727 0.11492 0.048475 0.12913 0.08949 0.08721 0.25175-0.063 0.24385 0.02054 0.36316 1.1631 1.6607 0.89242 1.0135 1.0292 1.102 1.6115 1.043 0.44408-0.04502 0.79956 0.06669 0.99644 0.31314 0.08739 0.10938 0.16938 0.2083 0.18223 0.21982 0.01287 0.01158 0.11452-0.06213 0.22598-0.16368 0.18983-0.17294 0.69675-0.25399 1.1254-0.17995 0.10845 0.01872 0.10923-0.12286 4e-3 -0.7175-0.07212-0.40746-0.18113-0.90067-0.24218-1.096-0.06102-0.19531-0.11101-0.51583-0.11103-0.7122-3.2e-5 -0.19639-0.02812-0.52671-0.06235-0.73407-0.05745-0.34813-0.09332-0.39469-0.46758-0.60812-0.37917-0.21621-0.59326-0.49484-0.42147-0.54852 0.04156-0.012958 0.05265-0.097185 0.02461-0.18707-0.04018-0.12877-0.0025-0.16156 0.17999-0.15465 0.30302 0.011525 0.61465-0.081065 1.0105-0.30019 0.30772-0.17034 0.31992-0.19921 0.27271-0.64551-0.07245-0.68502 0.08731-1.1567 0.53471-1.5788 0.36252-0.34204 0.37794-0.37928 0.25211-0.60927-0.24255-0.4433-0.57353-1.3837-0.49559-1.4081 0.12234-0.038247 0.71236 0.36893 0.76123 0.52532 0.03667 0.11746 0.06145 0.10505 0.13129-0.065719 0.14112-0.34533 0.52048-0.39799 0.81814-0.11356l0.25689 0.24547 0.30086-0.5276c0.16547-0.29017 0.44363-0.6333 0.61811-0.7625 0.28184-0.20869 0.34034-0.21987 0.52415-0.10023 0.22466 0.14627 0.68877 0.84804 0.80337 1.2148 0.06332 0.20273 0.09796 0.21326 0.30835 0.093789 0.16339-0.092785 0.37423-0.098763 0.67892-0.019275 0.37876 0.098829 0.61217 0.07135 1.6327-0.19219 1.0542-0.27222 1.2303-0.2913 1.5353-0.1663 0.39874 0.16343 0.65248 0.11645 0.64698-0.11978-0.0056-0.24413 0.23047-0.27446 0.53787-0.069086 0.2707 0.18086 0.2707 0.18086 0.42158 1.0057 0.25298 1.3829 0.32084 1.5428 0.82086 1.9342 0.4683 0.3666 0.56254 0.55344 0.61799 1.2252 0.05273 0.63825 0.17121 0.67741 0.77805 0.25702 0.65899-0.45651 0.6905-0.46103 1.1306-0.16166 0.33204 0.22583 0.41502 0.24036 0.65602 0.1148 0.25881-0.13481 0.31872-0.11503 0.96661 0.31934 0.49713 0.33329 0.74972 0.4453 0.9013 0.39971 0.11586-0.034798 0.32351-9.764e-4 0.46149 0.075263 0.14625 0.080805 0.37041 0.10228 0.5375 0.051506 0.15765-0.047863 0.52858-0.035639 0.82431 0.027253 0.29573 0.062891 0.77331 0.070438 1.0613 0.016747 0.96526-0.17997 1.0837-0.067065 1.3029 1.2423 0.08611 0.51442 0.15159 0.71961 0.29353 0.91977 0.27945 0.39408 0.73544 0.60575 1.1555 0.53637 0.29916-0.0494 2.4558 0.40175 3.2143 0.67242 0.10197 0.0364 0.22704 0.29184 0.459 0.93754l0.31885 0.88752 0.5486 0.16147c0.50264 0.14795 0.59816 0.1421 1.1405-0.06983 0.32556-0.12721 0.77739-0.29338 1.0041-0.36924l0.41218-0.1379 0.33059 1.1451 0.33058 1.1451 0.27492-0.08591c0.16159-0.05044 0.39208-0.02542 0.55916 0.06089l0.28426 0.14676-0.19975 0.54182c-0.10985 0.298-0.25782 0.59113-0.32879 0.65141-0.11406 0.09686-0.09987 0.20291 0.12228 0.91385 0.25133 0.80428 0.25133 0.80428 0.37547 0.60119 0.15063-0.24641 0.21259-0.22395 0.80809 0.29302 0.5259 0.45654 0.61707 0.64849 0.51532 1.0849-0.08455 0.36268-0.03756 0.4246 0.43082 0.56722 0.19844 0.06039 0.37949 0.16972 0.40235 0.24288 0.02283 0.07319-0.04115 0.47916-0.14234 0.90221zm-0.39738-1.0481c-0.41312-0.10088-0.47859-0.22627-0.40631-0.77802l0.0511-0.38989-0.34324-0.30868c-0.18878-0.16977-0.44214-0.37288-0.56302-0.45137-0.20506-0.13315-0.22555-0.12861-0.30583 0.06781-0.1482 0.36261-0.27443 0.31929-0.3546-0.12167-0.03936-0.21656-0.16005-0.6782-0.26818-1.0259-0.17726-0.56951-0.18129-0.63689-0.04148-0.68058 0.08532-0.02665 0.21967-0.2559 0.29855-0.50942 0.14262-0.45833 0.14226-0.46163-0.06407-0.5828-0.14549-0.08543-0.28074-0.08028-0.45238 0.0172l-0.24483 0.13903-0.36556-1.1698c-0.20106-0.64342-0.39672-1.1799-0.43477-1.1921-0.03806-0.01225-0.41786 0.13436-0.84398 0.32571-0.71114 0.31938-0.82144 0.34253-1.3431 0.28194-0.79255-0.09205-1.0028-0.29628-1.2122-1.1774-0.08801-0.37019-0.20264-0.71655-0.25479-0.76968-0.18669-0.19016-2.8937-0.82641-3.3013-0.77593-0.43975 0.05445-1.0525-0.20578-1.2441-0.52836-0.14898-0.25079-0.27964-0.70375-0.40452-1.4023-0.15857-0.88701-0.15488-0.88464-1.1627-0.74774-0.34146 0.046381-0.80941 0.039958-1.0399-0.014278-0.23048-0.05422-0.58052-0.076893-0.77786-0.050382-0.19735 0.026503-0.49153-0.00374-0.65375-0.067251-0.16222-0.063506-0.37504-0.090439-0.47292-0.059855-0.11528 0.036039-0.39681-0.10078-0.79917-0.38833-0.60047-0.42914-0.63343-0.43934-0.98817-0.30601-0.27983 0.10519-0.4034 0.102-0.52021-0.012763-0.084277-0.082885-0.26093-0.19644-0.39256-0.25235-0.22071-0.093742-0.28061-0.071791-0.7705 0.28237-0.7387 0.53402-0.87315 0.42499-1.0161-0.82419-0.026976-0.23577-0.10859-0.34528-0.4699-0.62992-0.24048-0.1895-0.49087-0.43593-0.55641-0.54761-0.065523-0.11167-0.20492-0.66734-0.30971-1.2348l-0.19056-1.0317-0.27483-0.17016c-0.27483-0.17014-0.27483-0.17014-0.3548 0.083133-0.1007 0.31886-0.18307 0.34275-0.59675 0.17299-0.28988-0.11895-0.48879-0.0976-1.5263 0.1638-1.019 0.25674-1.2588 0.28367-1.6443 0.18457-0.24826-0.063805-0.60559-0.073209-0.79409-0.020896l-0.34271 0.09513-0.23189-0.53329c-0.52745-1.213-0.95737-1.1748-1.6959 0.15071-0.13903 0.24952-0.26637 0.45791-0.28296 0.4631-0.016626 0.005133-0.15247-0.13042-0.30196-0.30134-0.222-0.25383-0.308-0.29304-0.46943-0.21395-0.1414 0.069273-0.18428 0.16368-0.15072 0.33183 0.064552 0.32362-0.11456 0.34915-0.32642 0.046526-0.096414-0.13771-0.2843-0.30603-0.41754-0.37406l-0.24225-0.12367 0.11359 0.36358c0.0625 0.19997 0.19895 0.47174 0.30327 0.60396 0.29808 0.37781 0.25401 0.6435-0.16559 0.99808-0.41803 0.35327-0.56087 0.80112-0.48424 1.5183 0.02616 0.24493-8.17e-4 0.49809-0.06015 0.56257-0.05925 0.064489-0.3873 0.21427-0.72897 0.33286-0.79241 0.27502-0.86933 0.4387-0.3469 0.738 0.42447 0.24318 0.58371 0.58152 0.59003 1.2537 0.0025 0.2052 0.11169 0.87172 0.2439 1.4811 0.13222 0.60944 0.23178 1.1739 0.22123 1.2544-0.01549 0.11794-0.10972 0.14745-0.48591 0.15184-0.27682 0.0034-0.60963 0.08098-0.81805 0.19072-0.33344 0.17558-0.35948 0.1726-0.51072-0.05823-0.17154-0.26183-0.64448-0.41381-0.9706-0.31191-0.48276 0.15086-0.72532-0.01371-1.7471-1.1852-1.1291-1.2945-1.2172-1.4175-1.164-1.6236 0.0282-0.10922 0.0016-0.15814-0.09469-0.17479-0.07367-0.01273-0.1485-0.0699-0.16636-0.12707-0.01785-0.05717-0.28425-0.28196-0.59198-0.49953-0.60405-0.42711-1.5893-0.67017-1.7712-0.43696-0.05088 0.065238-0.17203 0.1033-0.26934 0.084159-0.25152-0.048434-0.29956-0.028728-0.25757 0.10565 0.05798 0.18556-0.08407 0.56209-0.22917 0.60743-0.07702 0.024075-0.11832 0.1517-0.09984 0.30861 0.01734 0.14716-0.01147 0.28099-0.06393 0.29739-0.05248 0.016413-0.09152 0.17132-0.08674 0.34427 0.0098 0.35517-0.41143 0.8101-0.88802 0.95903-0.16584 0.05184-0.35002 0.21864-0.47322 0.42864-0.19059 0.32483-0.21671 0.33912-0.47386 0.25904-0.14968-0.04661-0.36757-0.05539-0.48419-0.01948-0.11647 0.0364-0.60142 0.01479-1.0773-0.04689-0.48838-0.06329-0.93007-0.06525-1.014-0.0045-0.12415 0.08986-0.17693 0.05528-0.31954-0.21015-0.21029-0.39131-0.53916-0.39601-0.67559-0.0097-0.06926 0.19613-0.15754 0.25654-0.43162 0.29539-0.1895 0.02687-0.45556 0.01888-0.59125-0.01775-0.29431-0.07942-0.85082 0.17688-0.87667 0.40374-0.02143 0.18807-0.27023 0.27728-0.6365 0.22822-0.21388-0.02865-0.34015 0.02479-0.60198 0.25473-0.51375 0.4512-1.4314 0.75439-1.929 0.63733l-0.40717-0.0958-0.1528 0.4128c-0.08384 0.22767-0.12556 0.49999-0.0925 0.60578 0.03306 0.10579 0.0014 0.34307-0.07036 0.5273-0.07174 0.18424-0.11532 0.46256-0.09681 0.61852 0.06194 0.52198-0.52537 0.86405-1.0887 0.6341-0.30656-0.12513-0.4901-0.10013-1.9206 0.26171-1.3932 0.35243-1.666 0.39131-2.2896 0.32653l-0.70793-0.073452-0.21223-0.67918-0.21223-0.67919-0.64018-0.47412c-0.50288-0.37244-0.68896-0.45889-0.86757-0.40308-0.15343 0.04794-0.2229 0.13531-0.21359 0.26864 0.00756 0.10866-0.056546 0.32994-0.14252 0.49172-0.085978 0.16178-0.13592 0.35942-0.11099 0.43921 0.05826 0.18641-0.15651 0.47344-0.30868 0.41254-0.064158-0.02567-0.21134-0.1318-0.32707-0.23583-0.285-0.25618-0.39444-0.19862-0.60647 0.31896-0.21077 0.51448-0.18903 1.0349 0.079039 1.8928 0.10444 0.33427 0.18991 0.78978 0.18987 1.0122-4.02e-5 0.31077 0.034762 0.44719 0.15018 0.58885 0.10865 0.13333 0.13691 0.22209 0.1021 0.32065-0.026476 0.07497 0.03663 0.40753 0.14023 0.73906 0.15609 0.49946 0.17456 0.69744 0.10783 1.1552-0.044289 0.3038-0.043178 0.73227 0.00248 0.95215 0.21663 1.0436 0.21842 1.0787 0.057539 1.129-0.1714 0.05354-0.62031 0.62951-0.58321 0.74825 0.012742 0.04075 0.14633 0.13948 0.29689 0.21946l0.27375 0.1454-0.12597 0.28928c-0.069288 0.15909-0.17198 0.36846-0.22822 0.46524-0.086947 0.14961-0.08502 0.16148 0.012813 0.07922 0.063283-0.05321 0.1538-0.1367 0.20114-0.1855 0.16163-0.16665 0.27271 0.1888 0.17465 0.55889-0.090008 0.3397-0.085517 0.36757 0.062574 0.38837 0.33912 0.04759 0.62493 0.31618 0.74484 0.69991 0.065447 0.20945 0.18429 0.41419 0.26977 0.46477 0.084028 0.04972 0.16333 0.12414 0.17621 0.16538 0.040234 0.12874-0.50749 0.60393-0.80231 0.69606-0.40648 0.12703-0.28816 0.29359 0.1416 0.19934 0.4896-0.10738 0.62786 0.11504 0.16201 0.26061-0.18822 0.05884-0.34904 0.15909-0.35739 0.22286-0.024715 0.1886 0.45421 0.2125 0.77275 0.03855 0.34672-0.18935 0.43334-0.12424 0.51801 0.38928 0.064005 0.38819 0.060045 0.39378-0.50693 0.71506-0.15092 0.08551-0.32175 0.29413-0.38309 0.46782-0.095871 0.27148-0.085919 0.37129 0.074229 0.74479 0.21096 0.49199 0.88792 1.3929 1.198 1.5943 0.20395 0.13246 0.2126 0.12072 0.39454-0.53502 0.29267-1.0548 0.6991-1.3851 1.47-1.1944 0.2769 0.06846 0.40108 0.15434 0.45009 0.31119 0.06306 0.2018 0.04034 0.21994-0.33187 0.26524-0.44205 0.05379-0.50172 0.19252-0.27018 0.62821 0.10196 0.19184 0.17808 0.21672 0.47918 0.15663 0.43704-0.08721 0.44865-0.10426 0.44835-0.65742l-2.4e-4 -0.44379 0.42869 0.40227 0.0087-0.52183c0.0048-0.28701 0.05084-0.56322 0.10229-0.61378 0.13243-0.13017 0.46787 0.0016 0.53278 0.20939 0.03002 0.09608 0.25676 0.38552 0.50384 0.64316 0.57662 0.60126 0.5419 0.5798 0.56362 0.34856 0.02493-0.2654 0.14755-0.29174 0.22369-0.04808 0.04696 0.15029 0.10755 0.1766 0.25999 0.11295 0.1511-0.06308 0.24404-0.02404 0.3876 0.16314 0.24776 0.32295 0.39231 0.2792 0.21014-0.06357-0.22582-0.42492-0.22961-0.44254-0.11208-0.52113 0.11184-0.07482 1.3434 0.8832 1.4102 1.0969 0.05096 0.16313-0.52331 0.73608-0.83561 0.83365l-0.28724 0.08975 0.15364 0.4917c0.13257 0.42429 0.17438 0.4852 0.30492 0.44442 0.2159-0.06748 0.61646 0.23609 0.55208 0.41838-0.03671 0.10393-0.09839 0.12009-0.23791 0.06227-0.16237-0.06723-0.1802-0.05191-0.12922 0.11122 0.06547 0.2095 0.92915 0.47004 1.4142 0.42662 0.20677-0.0185 0.33349 0.04988 0.52195 0.28176 0.24742 0.30442 0.24822 0.30764 0.13552 0.54714-0.14607 0.31055 0.03177 0.39 0.21222 0.09479 0.14878-0.24339 0.32472-0.2377 0.3305 0.01064 0.0027 0.11448 0.05813 0.13327 0.20745 0.07033 0.15156-0.0639 0.24916-0.02893 0.38073 0.13621 0.16931 0.21256 0.174 0.21259 0.1089 5.3e-4 -0.05649-0.18395-0.015-0.25063 0.24402-0.39236 0.36335-0.19882 0.6237-0.19594 0.93744 0.01064 0.21214 0.1396 0.22103 0.13769 0.15554-0.03366-0.04911-0.12849-0.01257-0.20959 0.12483-0.27696 0.16037-0.07865 0.25183-0.03276 0.52401 0.26286 0.18135 0.19698 0.34103 0.32613 0.35485 0.287 0.01383-0.03912-0.03777-0.12541-0.11457-0.19176-0.35467-0.30624 0.053-0.54466 0.6306-0.36878 0.30141 0.09178 0.37952 0.16237 0.45817 0.41404 0.11147 0.35676 0.50806 0.53507 0.60151 0.27046 0.02841-0.08051 0.18099-0.18675 0.33908-0.23615l0.28742-0.08983 0.15794 0.50547c0.17144 0.54863 0.24656 0.59586 0.35812 0.22518 0.09981-0.33164 0.48764-0.66309 0.64386-0.55025 0.13806 0.09972 0.10175 0.26373-0.11876 0.53634-0.07659 0.09469-0.11986 0.2647-0.09615 0.37784 0.03766 0.17968 0.04527 0.17344 0.05893-0.0489 0.01076-0.17286 0.08413-0.27597 0.22852-0.32108 0.25462-0.07954 0.4905 0.16968 0.57664 0.60932 0.04925 0.2514 0.08577 0.29334 0.21912 0.25168 0.088-0.02756 0.32195-5.29e-4 0.5199 0.05949 0.43903 0.13353 0.41763 0.14088 0.33741-0.11585-0.03958-0.12663-0.01201-0.25188 0.06861-0.3118 0.07411-0.05509 0.11916-0.15186 0.10011-0.21508-0.01908-0.06324-0.02402-0.19086-0.01099-0.28365 0.02029-0.14492 0.0573-0.15762 0.26248-0.09007 0.21173 0.06968 0.27614 0.0396 0.56742-0.26566 0.419-0.43904 0.52764-0.4685 0.77301-0.20967 0.21424 0.226 0.33688 0.50894 0.23448 0.54095-0.03437 0.01087-9.86e-4 0.16261 0.07411 0.33748l0.13665 0.31794-0.31734-0.2151c-0.17453-0.11832-0.32397-0.16446-0.33208-0.10258-0.0082 0.06194 0.09326 0.1603 0.22527 0.21868 0.132 0.05835 0.263 0.17969 0.29108 0.26959 0.02809 0.08989 0.12896 0.20346 0.22415 0.25237 0.16484 0.08469 0.1678 0.09417 0.06213 0.19887-0.16417 0.16271-0.07978 0.31808 0.29154 0.53686 0.31996 0.18851 0.32882 0.20331 0.25174 0.42068-0.07702 0.21727-0.09573 0.21246-0.52473-0.13504-0.24467-0.19819-0.37297-0.26653-0.28511-0.15187 0.08786 0.11466 0.28543 0.42744 0.43906 0.69505 0.4035 0.70288 0.75328 1.1196 1.1675 1.3908 0.28994 0.18988 0.38747 0.31398 0.48037 0.61129 0.1658 0.53061 0.17798 1.0534 0.02387 1.0268-0.20193-0.03488-0.05069 0.28044 0.19032 0.39672 0.4008 0.1934 0.56944 0.04662 0.57866-0.50358 0.01158-0.69034 0.14378-0.88135 0.73702-1.0648 0.67308-0.20809 0.91168-0.12568 1.0977 0.37918 0.246 0.66777 0.35296 0.83037 0.51325 0.78028 0.12594-0.03936 0.16736 0.01776 0.26479 0.36497 0.06349 0.22639 0.17172 0.45224 0.24045 0.50189 0.0687 0.04963 0.19066 0.30052 0.27095 0.55751 0.17539 0.56129 0.65865 1.373 0.76188 1.2798 0.044-0.03977-0.0016-0.30738-0.11269-0.66351-0.18544-0.59347-0.18527-0.59738 0.03855-0.70065 0.17486-0.08069 0.27112-0.05517 0.43209 0.11465 0.15632 0.16491 0.27161 0.19834 0.4701 0.13631 0.18334-0.05729 0.24864-0.12811 0.21561-0.23382-0.0304-0.09725 0.02689-0.17611 0.15961-0.21986 0.13265-0.04369 0.25959-0.21836 0.35342-0.48624l0.14642-0.41804 0.46832 0.33831c0.25758 0.18608 0.53271 0.41732 0.6114 0.51389 0.08043 0.09874 0.2983 0.18016 0.49779 0.18607 0.19509 0.0056 0.41584 0.01442 0.49057 0.01923 0.08879 0.0056 0.16155-0.15382 0.21008-0.46063 0.05298-0.33479 0.12714-0.4859 0.25871-0.52702 0.40044-0.12512 0.49246-0.36798 0.4312-1.1379-0.03211-0.40318-0.09114-0.8399-0.13124-0.97047-0.10118-0.32937-0.06137-0.50594 0.12176-0.53993 0.10826-0.02013 0.14108-0.10244 0.10761-0.27008-0.03863-0.19337-0.0065-0.24749 0.16376-0.27311 0.24181-0.03643 0.43916 0.29415 0.35955 0.60229-0.06023 0.23317 0.15343 0.34576 0.36524 0.19246 0.19672-0.14239 0.42509 0.07865 0.48605 0.47046 0.04433 0.28489 0.0687 0.31116 0.23892 0.25796 0.23983-0.07489 0.37388 0.12676 0.412 0.61991 0.02567 0.33273 0.0639 0.42039 0.27269 0.6263 0.13354 0.13168 0.29068 0.22446 0.34921 0.20617 0.07784-0.02437 0.11965 0.05175 0.1557 0.28356 0.05232 0.33607 0.0025 0.29159 1.3245 1.1794 0.23892 0.16043 0.45472 0.35672 0.47956 0.43621 0.07865 0.25164-0.14356 0.34632-0.50847 0.21667l-0.35272-0.12532 0.11304 0.23708c0.08468 0.17757 0.07204 0.37997-0.05036 0.80638-0.10721 0.37348-0.13337 0.66544-0.07612 0.84876 0.07497 0.23999 0.13868 0.28448 0.451 0.31506 0.32694 0.03195 0.39779 0.08635 0.70168 0.53817 0.30773 0.45756 0.68408 0.78705 0.84244 0.73756 0.03423-0.01064 0.05534-0.11716 0.04702-0.23661-0.0082-0.11946 0.03358-0.23243 0.09319-0.25105 0.16655-0.05208 0.24598 0.3345 0.16597 0.8077-0.03969 0.23455-0.05078 0.44185-0.02478 0.46066 0.026 0.01883 0.1306-0.05306 0.23239-0.15961 0.23261-0.24361 0.50645-0.2218 0.65192 0.05191 0.06161 0.11589 0.1918 0.50245 0.28939 0.85901 0.17553 0.64147 0.175 0.65037-0.05175 0.84499-0.22036 0.18916-0.2235 0.21781-0.082 0.74912 0.08093 0.30384 0.1961 0.58781 0.25594 0.63104 0.15775 0.11396 0.27789-0.1999 0.18739-0.48953-0.11494-0.3678 0.24389-1.1828 0.50119-1.1383 0.07734 0.01337 0.1884 0.10463 0.24672 0.20283 0.12816 0.21576 0.43536 0.14743 0.5023-0.11172 0.06219-0.24064 0.36513-0.32654 0.48891-0.13863 0.05428 0.08237 0.1457 0.37722 0.20333 0.65518 0.10043 0.48569 0.1144 0.50718 0.35702 0.54939 0.45801 0.0797 0.63377-0.0098 0.59899-0.30488-0.02829-0.24004 0.0065-0.2797 0.34202-0.38552 0.20544-0.06487 0.42864-0.09104 0.49598-0.05819 0.12585 0.06145 0.12139-0.05183-0.01557-0.39588-0.04555-0.11433-0.01597-0.18918 0.08728-0.22146 0.08581-0.02681 0.14181-0.09424 0.12444-0.14985-0.01736-0.05558-0.06202-0.09158-0.09927-0.07995-0.03725 0.0117-0.13851-0.14397-0.22508-0.3458-0.08655-0.20182-0.1974-0.45431-0.24632-0.56108-0.07359-0.16066-0.04662-0.208 0.15629-0.27452 0.32636-0.10697 0.45907-0.51052 0.34784-1.0577-0.05754-0.28291-0.04776-0.50338 0.02771-0.6284 0.10795-0.17874 0.15128-0.16622 0.6032 0.17441l0.4869 0.36699 0.28482-0.54977c0.23566-0.45488 0.26548-0.59034 0.17279-0.78473-0.13913-0.29178-0.44501-2.3358-0.39799-2.6595 0.01899-0.13089-0.02674-0.56184-0.10153-0.95764-0.14808-0.78307-0.13183-0.85045 0.25814-1.0703 0.1441-0.08125 0.31716-0.25821 0.38458-0.39322 0.12556-0.25145 0.43507-0.44438 1.3655-0.85115 0.43704-0.19107 0.52001-0.26215 0.47481-0.40679-0.03015-0.09639-0.02705-0.30301 0.0065-0.45915 0.0339-0.15614 0.04344-0.48528 0.02128-0.73142-0.07652-0.84905 0.43058-0.79546 0.70234 0.07424 0.18088 0.57884 0.47352 0.83249 0.66621 0.57743 0.0652-0.08626 0.2926-0.21124 0.50541-0.27774 0.21281-0.0665 0.46107-0.21583 0.55171-0.33186 0.12308-0.15754 0.28138-0.22541 0.62535-0.26809 0.47574-0.05901 0.48606-0.07188 0.40526-0.5048-0.03227-0.17312 0.02705-0.23616 0.33997-0.3613 0.32131-0.1285 0.42305-0.12225 0.6676 0.04107 0.15869 0.10595 0.31001 0.18594 0.33627 0.17773 0.02624-0.0082 0.0947-0.17939 0.15209-0.38042 0.16393-0.57424 0.28485-0.5509 1.1421 0.22043 0.20728 0.18652 0.37632 0.45033 0.53962 0.84222 0.1554 0.3729 0.28437 0.57867 0.3722 0.59384 0.07392 0.01272 0.21616 0.14077 0.31608 0.28445l0.18168 0.26124 0.22392-0.682c0.24356-0.74179 0.30012-0.78524 1.1116-0.85411 0.25672-0.02176 0.44689-0.08994 0.52079-0.18664 0.06397-0.08377 0.29599-0.23811 0.5155-0.34297 0.35816-0.1711 0.3933-0.2173 0.34255-0.4504-0.10462-0.48062-0.06878-0.87564 0.09888-1.0903 0.31592-0.40441 0.48337-0.32518 0.82144 0.38864 0.14777 0.31202 0.19873 0.35198 0.37759 0.29609 0.11372-0.03553 0.3767-0.2268 0.5844-0.42503 0.50965-0.48643 2.1714-1.125 3.903-1.4998l0.91373-0.19778-1.4407-4.6106c-0.91862-2.9398-1.4346-4.6891-1.4238-4.8273 0.01345-0.17189 0.07164-0.21914 0.28148-0.2284 0.23917-0.01064 0.24964-0.02461 0.10913-0.14696-0.13292-0.11572-0.14032-0.15013-0.0511-0.23783 0.06903-0.06788 0.06788-0.16383-0.0033-0.28391-0.07342-0.12366-0.07066-0.27555 0.0092-0.47748 0.10782-0.27285 0.10102-0.32347-0.0865-0.64456-0.11192-0.19166-0.24358-0.35131-0.29257-0.3548-0.04898-4e-3 -0.19028-4e-3 -0.31399-0.0025-0.16602 0.0033-0.26874-0.07629-0.39222-0.30283-0.18808-0.34514-0.15739-0.47122 0.13848-0.56885 0.14115-0.04662 0.2343-0.26057 0.37285-0.85647 0.10158-0.43691 0.16096-0.82058 0.13194-0.85261-0.02902-0.03203-0.21648-0.09821-0.41662-0.14709zm-39.529 18.863c-0.18141-0.07514-0.18515-0.06748-0.04899 0.09958 0.08108 0.09951 0.18028 0.17067 0.22041 0.15814 0.12379-0.03863 0.03496-0.17225-0.17142-0.25772zm-11.727-2.7378c-0.05234-0.02136-0.07384 0.02942-0.04777 0.1128 0.02605 0.0834 0.09021 0.16912 0.14255 0.19049 0.05234 0.02136 0.07382-0.02942 0.04777-0.1128-0.02605-0.08341-0.09021-0.16912-0.14255-0.19049z" fill="#9121ed" stroke="#9121ed" stroke-width=".64689"/>
</svg>
